<svg xmlns="http://www.w3.org/2000/svg" width="400" height="400" viewBox="0 0 400 400">
    <g fill-rule="evenodd">
        <path fill="#fff"
            d="M0 200v200h400V0H0zm133.3-66.7.1 33.3 33.3.1 33.3.1V100h133.2v200H200v-66.8l-33.3.1-33.3.1-.1 33.3-.1 33.3H66.8V100h66.4zM200 200v33.2h66.8v-66.4H200z" />
        <path fill="#000"
            d="M66.8 200v100h66.4l.1-33.3.1-33.3 33.3-.1 33.3-.1V300h133.2V100H200v66.8l-33.3-.1-33.3-.1-.1-33.3-.1-33.3H66.8zm200 0v33.2H200v-66.4h66.8z" />
    </g>
</svg>