<svg xmlns="http://www.w3.org/2000/svg" width="400" height="99.967" viewBox="0 0 400 99.967">
    <g fill-rule="evenodd">
        <path fill="#000"
            d="M27.5 49.92v19.75h13.17V56.5H54v13.17h26.33v-39.5H54v13.16H40.67V30.17H27.5zm69.67 1.58v14.33h6.29c6.9 0 7.74-.09 9.6-.97 6.1-2.87 5.22-12.38-1.27-13.77-.66-.14-.57-.3.34-.63 5.3-1.88 5.27-9.61-.05-12.35-1.7-.88-2.31-.94-8.86-.94h-6.05zm25 0v14.33h17.66v-3h-14.16V53h13v-3h-13v-9.83h13.83v-3h-17.33zm21.33-12.83v1.5h9v25.66h3.5V40.17h9.17v-3H143.5zm24.67 0v1.5h9v25.66h3.5V40.17h9.16v-3h-21.66zm26.16 12.83v14.33H212v-3h-14.17V53h13v-3l-6.46-.04-6.45-.04-.05-4.88-.04-4.87h14v-3h-17.5zm23 0v14.33h3.5V54.66l3.52.05 3.51.04 1 1.83 3.83 7.09 1.12 2.08 2.01.05c1.1.02 2.01 0 2.01-.03 0-.08-2.17-4.07-5.02-9.23-.72-1.3-1.31-2.4-1.31-2.43s.48-.3 1.07-.6c5.72-2.9 5.66-12.5-.1-15.3-2.01-.97-2.63-1.04-9.19-1.04h-5.95zm47.28-6.8-7.45 20.26-.33.88 1.86-.04 1.86-.05 1.2-3.42c.67-1.88 1.33-3.7 1.47-4.04l.26-.63 5.8.05 5.78.04.68 1.92 1.43 4.04.75 2.12h1.79c2.03 0 1.96.07 1.38-1.39l-.98-2.6c-1.27-3.55-8.66-23.63-8.87-24.13l-.22-.54h-3.64zm20.72 2.55c0 11.14.02 11.4 1.06 13.57 3.54 7.43 16.71 7.39 20.27-.06 1-2.11 1-2.12 1-13.36V37.17h-3.31l-.06 10.12c-.06 11.18-.03 10.86-1.17 12.64-2.86 4.46-11.08 4.21-13.44-.4-.83-1.62-.85-1.92-.85-12.48v-9.88h-3.5zm27-8.6v1.5l4.55.05 4.54.04.04 12.8.04 12.78h3.33l.04-12.79.05-12.79 4.54-.04 4.54-.05v-3h-21.67zM338.5 51.5v14.33h3.5l.04-6.37.04-6.38 7.71-.04 7.71-.04v12.83h3.5V37.17h-3.5l-.04 6.37-.04 6.38h-15.34l-.04-6.38-.04-6.37h-3.5zM108.95 40.35c4.76.83 5.06 7.2.42 9-.86.33-1.33.38-4.83.45l-3.87.07v-9.7h3.6c2 0 4.1.08 4.68.18m119.86 0c3.03.48 4.43 2.22 4.44 5.48 0 4.52-1.46 5.51-8.3 5.63l-4.12.07V40.17h3.46c1.9 0 3.94.08 4.52.17m41.94 5.24c2.75 7.83 3.08 8.78 3.08 8.93 0 .1-1.85.16-4.66.16-2.57 0-4.67-.04-4.67-.07s.3-.89.66-1.88c1.18-3.25 3.34-9.36 3.34-9.44 0-.33.7-1.64.82-1.52.07.09.72 1.8 1.43 3.82M67.17 49.92v6.58H54V43.33h13.17zm174 1.58V53h12.66v-3h-12.66zm-130.59 1.88c4.32 2.02 4.33 7.67.02 9.06-.67.22-1.8.3-5.4.35l-4.53.08V52.8l4.45.05 4.46.06zm257.89 7.78c-2.26.68-2.5 3.76-.37 4.7 2.48 1.1 4.67-1.9 2.88-3.94a2.3 2.3 0 0 0-2.51-.76" />
        <path fill="#fff"
            d="M0 49.92v49.91h400V0H0zm40.67-13.17v6.58H54V30.17h26.33v39.5H54V56.5H40.67v13.17H27.5v-39.5h13.17zm69.59.67c6.74 1.75 8.05 10.85 1.87 13.04-.9.32-1 .5-.34.63 6.5 1.4 7.38 10.9 1.28 13.77-1.87.88-2.72.97-9.61.97h-6.3V37.17h6.06c4.9 0 6.23.05 7.04.25m29.24 1.25v1.5h-13.83V50h13v3h-13v9.83h14.16v3h-17.66V37.17h17.33zm25.67 0v1.5H156v25.66h-3.5V40.17h-9v-3h21.67zm24.66 0v1.5h-9.16v25.66h-3.5V40.17h-9v-3h21.66zm22 0v1.5h-14l.04 4.87.05 4.88 6.46.04 6.45.04v3h-13v9.83H212v3h-17.67V37.17h17.5zm18.5-1.24c7.5 1.84 9.02 12.64 2.24 16.08-.59.3-1.07.57-1.07.6s.59 1.12 1.31 2.43c2.85 5.16 5.02 9.15 5.02 9.23 0 .04-.9.05-2.01.03l-2.01-.05-1.12-2.08-3.83-7.09-1-1.83-3.51-.05-3.52-.04v11.17h-3.5V37.17h5.95c4.9 0 6.14.04 7.04.26m40.92.28c.21.5 7.6 20.58 8.87 24.12l.98 2.61c.58 1.46.65 1.4-1.38 1.4h-1.8l-.74-2.13-1.43-4.04-.68-1.92-5.79-.04-5.78-.05-.27.63c-.14.34-.8 2.16-1.47 4.04l-1.2 3.42-1.86.05-1.86.04.33-.88 7.45-20.25 2.77-7.54h3.64zm17.6 9.34c0 10.56.01 10.86.84 12.48 2.36 4.61 10.58 4.86 13.44.4 1.14-1.78 1.11-1.46 1.18-12.64l.05-10.12h3.32V47.4c0 11.24 0 11.25-1.01 13.36-3.56 7.45-16.73 7.49-20.27.06-1.04-2.18-1.06-2.43-1.06-13.57v-10.1h3.5zM334 38.66v1.5l-4.54.05-4.54.04-.05 12.8-.04 12.78h-3.33l-.04-12.79-.04-12.79-4.55-.04-4.54-.05v-3H334zm8.04 4.88.04 6.38h15.34l.04-6.38.04-6.37h3.5v28.66h-3.5V53l-7.7.04-7.72.04-.04 6.38-.04 6.37h-3.5V37.17h3.5zm-241.37 1.48v4.85l3.87-.07c6.2-.13 8.31-1.52 8.1-5.33-.2-3.44-1.88-4.3-8.36-4.3h-3.61zm120.16.83v5.68l4.13-.07c6.83-.12 8.3-1.11 8.29-5.63-.01-4.5-1.83-5.66-8.96-5.66h-3.46zm48-3.45c-.18.44-.33.83-.33.88 0 .08-2.16 6.19-3.34 9.44-.37 1-.66 1.84-.66 1.88s2.1.07 4.67.07c2.81 0 4.66-.07 4.66-.16 0-.3-4.34-12.56-4.51-12.75-.08-.08-.29.2-.48.64M54 49.92v6.58h13.17V43.33H54zm199.83 1.58V53h-12.66v-3h12.66zm-153.16 6.34v5.03l4.54-.08c3.59-.06 4.72-.13 5.39-.35 4.31-1.39 4.3-7.04-.02-9.06l-1-.46-4.45-.05-4.46-.06zm269.2 3.33c2.46.69 2.2 4.48-.35 4.9-3.05.53-4.03-4-1.05-4.9.61-.2.7-.2 1.4 0" />
    </g>
</svg>