<svg xmlns="http://www.w3.org/2000/svg" version="1.1" xmlns:xlink="http://www.w3.org/1999/xlink" xmlns:svgjs="http://svgjs.dev/svgjs" viewBox="0 0 800 800" width="800" height="800"><g stroke-width="3.5" stroke="hsla(0, 0%, 100%, 1.00)" fill="none"><rect width="200" height="8.578947368421051" x="-100" y="-4.289473684210526" stroke="none" fill="hsla(0, 0%, 100%, 1.00)" rx="4.289473684210526"></rect><rect width="8.578947368421051" height="200" x="-4.289473684210526" y="-100" stroke="none" fill="hsla(0, 0%, 100%, 1.00)" rx="4.289473684210526"></rect><rect width="200" height="8.578947368421051" x="300" y="-4.289473684210526" stroke="none" fill="hsla(0, 0%, 100%, 1.00)" rx="4.289473684210526"></rect><rect width="8.578947368421051" height="200" x="395.7105263157895" y="-100" stroke="none" fill="hsla(0, 0%, 100%, 1.00)" rx="4.289473684210526"></rect><rect width="200" height="8.578947368421051" x="700" y="-4.289473684210526" stroke="none" fill="hsla(0, 0%, 100%, 1.00)" rx="4.289473684210526"></rect><rect width="8.578947368421051" height="200" x="795.7105263157895" y="-100" stroke="none" fill="hsla(0, 0%, 100%, 1.00)" rx="4.289473684210526"></rect><rect width="200" height="8.578947368421051" x="-100" y="395.7105263157895" stroke="none" fill="hsla(0, 0%, 100%, 1.00)" rx="4.289473684210526"></rect><rect width="8.578947368421051" height="200" x="-4.289473684210526" y="300" stroke="none" fill="hsla(0, 0%, 100%, 1.00)" rx="4.289473684210526"></rect><rect width="200" height="8.578947368421051" x="300" y="395.7105263157895" stroke="none" fill="hsla(0, 0%, 100%, 1.00)" rx="4.289473684210526"></rect><rect width="8.578947368421051" height="200" x="395.7105263157895" y="300" stroke="none" fill="hsla(0, 0%, 100%, 1.00)" rx="4.289473684210526"></rect><rect width="200" height="8.578947368421051" x="700" y="395.7105263157895" stroke="none" fill="hsla(0, 0%, 100%, 1.00)" rx="4.289473684210526"></rect><rect width="8.578947368421051" height="200" x="795.7105263157895" y="300" stroke="none" fill="hsla(0, 0%, 100%, 1.00)" rx="4.289473684210526"></rect><rect width="200" height="8.578947368421051" x="-100" y="795.7105263157895" stroke="none" fill="hsla(0, 0%, 100%, 1.00)" rx="4.289473684210526"></rect><rect width="8.578947368421051" height="200" x="-4.289473684210526" y="700" stroke="none" fill="hsla(0, 0%, 100%, 1.00)" rx="4.289473684210526"></rect><rect width="200" height="8.578947368421051" x="300" y="795.7105263157895" stroke="none" fill="hsla(0, 0%, 100%, 1.00)" rx="4.289473684210526"></rect><rect width="8.578947368421051" height="200" x="395.7105263157895" y="700" stroke="none" fill="hsla(0, 0%, 100%, 1.00)" rx="4.289473684210526"></rect><rect width="200" height="8.578947368421051" x="700" y="795.7105263157895" stroke="none" fill="hsla(0, 0%, 100%, 1.00)" rx="4.289473684210526"></rect><rect width="8.578947368421051" height="200" x="795.7105263157895" y="700" stroke="none" fill="hsla(0, 0%, 100%, 1.00)" rx="4.289473684210526"></rect></g></svg>
